<svg width="22" height="22" viewBox="0 0 22 22" fill="none" xmlns="http://www.w3.org/2000/svg">
<path d="M2.01 10.22V14.71C2.01 19.2 3.81 21 8.3 21H13.69C18.18 21 19.98 19.2 19.98 14.71V10.22" stroke="white" stroke-width="2" stroke-linecap="round" stroke-linejoin="round"/>
<path d="M11 11C12.83 11 14.18 9.51 14 7.68L13.34 1H8.67L8 7.68C7.82 9.51 9.17 11 11 11Z" stroke="white" stroke-width="2" stroke-linecap="round" stroke-linejoin="round"/>
<path d="M16.9877 11C19.0077 11 20.4877 9.36 20.2877 7.35L20.0077 4.6C19.6477 2 18.6477 1 16.0277 1H12.9777L13.6777 8.01C13.8477 9.66 15.3377 11 16.9877 11ZM4.31774 11C5.96774 11 7.45773 9.66 7.61773 8.01L7.83774 5.8L8.31774 1H5.26774C2.64774 1 1.64774 2 1.28774 4.6L1.01774 7.35C0.817735 9.36 2.29774 11 4.31774 11ZM10.6777 16C9.00774 16 8.17774 16.83 8.17774 18.5V21H13.1777V18.5C13.1777 16.83 12.3477 16 10.6777 16Z" stroke="white" stroke-width="2" stroke-linecap="round" stroke-linejoin="round"/>
</svg>


