<svg width="29" height="31" viewBox="0 0 29 31" fill="none" xmlns="http://www.w3.org/2000/svg">
<path d="M0.929688 1H3.33301C4.82473 1 5.99877 2.3485 5.87446 3.9L4.72805 18.342C4.68329 18.9015 4.74971 19.4647 4.92312 19.9958C5.09653 20.5269 5.37314 21.0145 5.73543 21.4275C6.09771 21.8405 6.53777 22.1701 7.02772 22.3952C7.51766 22.6204 8.04682 22.7363 8.58166 22.7355H23.2917C25.2806 22.7355 27.021 21.0245 27.1729 18.951L27.9188 8.076C28.0845 5.669 26.3442 3.7115 24.0375 3.7115H6.20596M10.5982 9.7H27.1729M20.6121 30C21.07 30 21.5092 29.809 21.8329 29.4691C22.1567 29.1292 22.3386 28.6682 22.3386 28.1875C22.3386 27.7068 22.1567 27.2458 21.8329 26.9059C21.5092 26.566 21.07 26.375 20.6121 26.375C20.1542 26.375 19.715 26.566 19.3913 26.9059C19.0675 27.2458 18.8856 27.7068 18.8856 28.1875C18.8856 28.6682 19.0675 29.1292 19.3913 29.4691C19.715 29.809 20.1542 30 20.6121 30ZM9.56232 30C10.0202 30 10.4594 29.809 10.7832 29.4691C11.1069 29.1292 11.2889 28.6682 11.2889 28.1875C11.2889 27.7068 11.1069 27.2458 10.7832 26.9059C10.4594 26.566 10.0202 26.375 9.56232 26.375C9.10442 26.375 8.66527 26.566 8.34149 26.9059C8.0177 27.2458 7.8358 27.7068 7.8358 28.1875C7.8358 28.6682 8.0177 29.1292 8.34149 29.4691C8.66527 29.809 9.10442 30 9.56232 30Z" stroke="white" stroke-width="1.5" stroke-miterlimit="10" stroke-linecap="round" stroke-linejoin="round"/>
</svg>
