<svg width="46" height="46" viewBox="0 0 46 46" fill="none" xmlns="http://www.w3.org/2000/svg">
<rect width="46" height="46" fill="#1E1E1E"/>
<rect width="1440" height="2954" transform="translate(-1124 -84)" fill="white"/>
<rect x="-1124" y="-84" width="1440" height="147" fill="#1C2D3A"/>
<g filter="url(#filter0_d_0_1)">
<circle cx="23" cy="23" r="23" fill="url(#paint0_linear_0_1)"/>
<path d="M29.9642 23.9213C29.4335 24.4394 29.1302 25.1849 29.206 25.981C29.3198 27.3457 30.5708 28.3439 31.9355 28.3439H34.3363V29.8477C34.3363 32.4633 32.2008 34.5989 29.5851 34.5989H15.0788C12.4631 34.5989 10.3276 32.4633 10.3276 29.8477V21.3435C10.3276 18.7278 12.4631 16.5923 15.0788 16.5923H29.5851C32.2008 16.5923 34.3363 18.7278 34.3363 21.3435V23.1631H31.7838C31.0762 23.1631 30.4318 23.4411 29.9642 23.9213Z" stroke="white" stroke-width="2.5" stroke-linecap="round" stroke-linejoin="round"/>
<path d="M10.3276 22.4813V16.7065C10.3276 15.2028 11.25 13.8634 12.6526 13.3327L22.6858 9.5418C23.0493 9.40481 23.4406 9.35808 23.8262 9.40562C24.2118 9.45316 24.58 9.59355 24.8994 9.81475C25.2188 10.0359 25.4797 10.3313 25.6598 10.6756C25.8398 11.0198 25.9337 11.4026 25.9333 11.791V16.5928M16.0139 21.9632H24.8592M35.6745 24.4525V27.0556C35.6745 27.7506 35.1185 28.3192 34.4109 28.3445H31.9342C30.5695 28.3445 29.3185 27.3462 29.2048 25.9815C29.129 25.1854 29.4322 24.4399 29.963 23.9218C30.4305 23.4416 31.0749 23.1636 31.7826 23.1636H34.4109C35.1185 23.1889 35.6745 23.7575 35.6745 24.4525Z" stroke="white" stroke-width="2.5" stroke-linecap="round" stroke-linejoin="round"/>
</g>
<defs>
<filter id="filter0_d_0_1" x="-4" y="0" width="54" height="54" filterUnits="userSpaceOnUse" color-interpolation-filters="sRGB">
<feFlood flood-opacity="0" result="BackgroundImageFix"/>
<feColorMatrix in="SourceAlpha" type="matrix" values="0 0 0 0 0 0 0 0 0 0 0 0 0 0 0 0 0 0 127 0" result="hardAlpha"/>
<feOffset dy="4"/>
<feGaussianBlur stdDeviation="2"/>
<feComposite in2="hardAlpha" operator="out"/>
<feColorMatrix type="matrix" values="0 0 0 0 0 0 0 0 0 0 0 0 0 0 0 0 0 0 0.25 0"/>
<feBlend mode="normal" in2="BackgroundImageFix" result="effect1_dropShadow_0_1"/>
<feBlend mode="normal" in="SourceGraphic" in2="effect1_dropShadow_0_1" result="shape"/>
</filter>
<linearGradient id="paint0_linear_0_1" x1="7.04082" y1="4.69388" x2="38.0204" y2="42.2449" gradientUnits="userSpaceOnUse">
<stop stop-color="#FFD951"/>
<stop offset="1" stop-color="#F2992F"/>
</linearGradient>
</defs>
</svg>
