<svg width="18" height="17" viewBox="0 0 18 17" fill="none" xmlns="http://www.w3.org/2000/svg">
<rect width="18" height="17" fill="#1E1E1E"/>
<g clip-path="url(#clip0_0_1)">
<rect width="390" height="4238" transform="translate(-57 -2206)" fill="white"/>
<rect x="-32.5" y="-13.5" width="154.351" height="44" rx="22" stroke="#008AEE"/>
<g clip-path="url(#clip1_0_1)">
<path d="M18.1003 12.9325C18.1169 13.495 17.9505 14.0275 17.6509 14.485C17.4844 14.755 17.2597 15.0025 17.01 15.205C16.4358 15.685 15.6784 15.9775 14.8379 16C13.6228 16.0225 12.5491 15.46 11.9582 14.5975C11.642 14.155 11.4506 13.6225 11.4422 13.06C11.4173 12.115 11.8833 11.26 12.6324 10.6975C13.1983 10.2775 13.914 10.015 14.6964 9.99998C15.1336 9.99102 15.5685 10.0598 15.9762 10.2023C16.3839 10.3448 16.7564 10.5584 17.0725 10.8307C17.3886 11.103 17.6421 11.4288 17.8185 11.7894C17.9948 12.1501 18.0906 12.5385 18.1003 12.9325Z" stroke="black" stroke-width="1.5" stroke-miterlimit="10" stroke-linecap="round" stroke-linejoin="round"/>
<path d="M13.4729 13.0225L14.3135 13.7425L16.0529 12.2275M1.59662 5.08002L8.94545 8.91252L16.2444 5.10252M8.94545 15.7075V8.90502" stroke="black" stroke-width="1.5" stroke-linecap="round" stroke-linejoin="round"/>
<path d="M16.9434 6.3775V10.6225C16.9434 10.66 16.9434 10.69 16.9351 10.7275C16.3525 10.27 15.6035 10 14.7712 10C13.9889 10 13.2649 10.2475 12.6906 10.66C12.2999 10.9398 11.9847 11.2956 11.7685 11.7009C11.5523 12.1062 11.4407 12.5503 11.4422 13C11.4422 13.5625 11.617 14.095 11.9249 14.545C11.9998 14.665 12.0914 14.7775 12.1912 14.8825L10.6682 15.64C9.71944 16.12 8.17144 16.12 7.22267 15.64L2.77842 13.42C1.77138 12.9175 0.947449 11.6575 0.947449 10.6225V6.3775C0.947449 5.3425 1.77138 4.0825 2.77842 3.58L7.22267 1.36C8.17144 0.88 9.71944 0.88 10.6682 1.36L15.1125 3.58C16.1195 4.0825 16.9434 5.3425 16.9434 6.3775Z" stroke="black" stroke-width="1.5" stroke-linecap="round" stroke-linejoin="round"/>
</g>
</g>
<defs>
<clipPath id="clip0_0_1">
<rect width="390" height="4238" fill="white" transform="translate(-57 -2206)"/>
</clipPath>
<clipPath id="clip1_0_1">
<rect width="19.9742" height="18" fill="white" transform="translate(-1.04163 -0.5)"/>
</clipPath>
</defs>
</svg>
