<svg width="22" height="21" viewBox="0 0 22 21" fill="none" xmlns="http://www.w3.org/2000/svg">
<path d="M3.00001 5.99996H2.00001M20 5.99996H19M11 0.999956V2.99996M9.50001 2.99996H12.5M5.00001 13H8.00001M14 13H17M14.51 0.829956H7.49001C5.00001 0.829956 4.45001 2.06996 4.13001 3.58996L3.00001 8.99996H19L17.87 3.58996C17.55 2.06996 17 0.829956 14.51 0.829956ZM20.99 17.82C21.1 18.99 20.16 20 18.96 20H17.08C16 20 15.85 19.54 15.66 18.97L15.46 18.37C15.18 17.55 15 17 13.56 17H8.44001C7.00001 17 6.79001 17.62 6.54001 18.37L6.34001 18.97C6.15001 19.54 6.00001 20 4.92001 20H3.04001C1.84001 20 0.900011 18.99 1.01001 17.82L1.57001 11.73C1.71001 10.23 2.00001 8.99996 4.62001 8.99996H17.38C20 8.99996 20.29 10.23 20.43 11.73L20.99 17.82Z" stroke="white" stroke-width="1.5" stroke-linecap="round" stroke-linejoin="round"/>
</svg>
