<svg width="218" height="36" viewBox="0 0 218 36" fill="none" xmlns="http://www.w3.org/2000/svg">
<path fill-rule="evenodd" clip-rule="evenodd" d="M13.8995 0.39913C15.1059 0.138052 16.3563 0 17.6401 0C19.0684 0 20.4577 0.171548 21.7869 0.491478V2.89565C23.0663 3.2544 24.278 3.77468 25.3974 4.43489L27.0868 2.74383C29.3312 4.17162 31.2317 6.0937 32.6346 8.3567L30.9412 10.0525C31.5781 11.1663 32.0803 12.3665 32.4223 13.633H34.8181C35.1195 14.9262 35.2799 16.2751 35.2799 17.6603C35.2799 18.9898 35.132 20.284 34.8547 21.5296H32.4686C32.134 22.8165 31.6347 24.0364 30.9981 25.1681L32.6947 26.8673C31.3067 29.1406 29.4187 31.0736 27.1828 32.5155L25.4968 30.8279C24.3486 31.5157 23.1042 32.055 21.7869 32.4257V34.8289C20.4577 35.1501 19.0684 35.3213 17.6401 35.3213C16.3563 35.3213 15.1059 35.1823 13.8995 34.9213V32.5368C13.247 32.3725 12.6132 32.1652 11.9966 31.9198L14.7403 29.1735C15.669 29.4064 16.6402 29.5322 17.6401 29.5322C24.1886 29.5322 29.4982 24.2174 29.4982 17.6603C29.4982 11.1037 24.1886 5.7888 17.6401 5.7888C11.0901 5.7888 5.78145 11.1037 5.78145 17.6603C5.78145 18.7263 5.92497 19.7584 6.18668 20.7407L3.46012 23.4714C3.2031 22.844 2.98453 22.196 2.81194 21.5296H0.426193C0.147909 20.284 1.14441e-05 18.9898 1.14441e-05 17.6603C1.14441e-05 16.2751 0.160102 14.9262 0.461212 13.633H2.85633C3.22686 12.2685 3.77874 10.9794 4.48883 9.79388L2.80162 8.10626C4.24182 5.86894 6.1723 3.97847 8.4436 2.5873L10.1396 4.2865C11.3077 3.62911 12.5688 3.11823 13.8995 2.78452V0.39913Z" fill="white"/>
<path fill-rule="evenodd" clip-rule="evenodd" d="M18.0109 10.2133C18.7257 10.2133 19.4405 10.3194 20.1296 10.5316L15.5964 15.0692L16.601 18.8223L20.3507 19.8281L24.883 15.2908C25.0596 15.8661 25.1627 16.4589 25.1921 17.055L25.201 17.413C25.201 19.1517 24.5757 20.8904 23.3238 22.2618L23.0963 22.4999C21.211 24.3866 18.5403 25.0061 16.1388 24.3592L15.8731 24.2821L6.74008 33.4154C4.95581 32.3055 3.4224 30.8287 2.24459 29.0906L1.99768 28.7141L11.1485 19.5517C10.4092 17.1685 10.9338 14.477 12.725 12.5327L12.9293 12.3197C14.2543 10.9935 15.9687 10.2937 17.7045 10.2198L18.0109 10.2133ZM94.3491 2.16931L94.7487 2.17144C98.2859 2.2096 100.24 2.75564 101.583 3.41491L98.6809 9.68893L98.443 9.58868C97.3867 9.16789 95.9987 8.92604 94.3109 8.92604L94.1774 8.92665C91.5379 8.95159 90.7346 9.77379 89.7464 17.2887L89.6834 17.737C89.3343 20.236 89.1273 22.031 89.1273 23.3198L89.1294 23.5402C89.1688 25.5559 89.77 26.4177 91.5253 26.4177L91.6905 26.4143C93.4153 26.3428 93.9362 25.1161 94.3109 22.0745L94.5423 20.2247H91.4096L92.2604 14.0725H101.583L100.615 20.9892L100.562 21.3679C99.3333 29.9901 97.7363 32.5301 91.1779 32.5301L90.8414 32.5274C84.3022 32.4209 82.3578 29.1801 82.3578 23.6838L82.3619 23.2225C82.3942 21.3514 82.6169 19.1731 82.9378 16.6851C84.1373 7.55804 85.8783 2.16931 94.3491 2.16931ZM50.5634 2.53088L51.2216 13.1067L51.4529 18.1733L53.0401 13.1067L56.6359 2.53088H65.1076L61.085 32.3314H54.5866L56.8301 15.8405L55.5143 20.185L51.4529 32.3314H47.1605L46.3866 20.2247L46.2697 15.8405L44.0262 32.3314H38.0687L42.0926 2.53088H50.5634ZM83.5576 2.53088L82.668 9.12702H74.1578L73.4999 14.0725H81.623L80.735 20.6267H72.611L71.8762 25.8946H80.3864L79.5346 32.3314H64.178L68.201 2.53088H83.5576ZM117.248 2.45042L120.072 32.3314H112.915L112.645 28.7908H107.114L105.954 32.3314H99.1065L109.744 2.45042H117.248ZM111.717 14.1927L110.558 18.0938L109.087 22.6383H112.181L111.91 18.1336L111.717 14.1927Z" fill="#008AEE"/>
<path fill-rule="evenodd" clip-rule="evenodd" d="M133.571 2.53101C140.611 2.53101 142.739 4.98339 142.739 9.89003C142.739 10.9754 142.661 12.1424 142.468 13.429C141.462 20.6669 139.334 23.483 132.837 23.483H129.626L128.426 32.3309H121.658L125.68 2.53101H133.571ZM133.184 8.84447H131.599L130.477 17.2084H132.991C134.617 17.2084 135.35 16.6853 135.815 13.1879C135.932 12.3834 135.969 11.7407 135.969 11.2173C135.969 9.28805 135.196 8.84447 133.184 8.84447Z" fill="white"/>
<path fill-rule="evenodd" clip-rule="evenodd" d="M156.354 2.45056L159.177 32.3315H152.022L151.75 28.7907H146.22L145.059 32.3315H138.212L148.85 2.45056H156.354ZM150.822 14.1925L149.662 18.0937L148.192 22.6381H151.287L151.016 18.1334L150.822 14.1925Z" fill="white"/>
<path fill-rule="evenodd" clip-rule="evenodd" d="M172.716 2.53125C179.602 2.53125 181.612 4.86311 181.612 9.44826C181.612 10.4531 181.496 11.4996 181.342 12.7045C180.838 16.5656 179.677 19.7026 176.623 21.4319L178.517 32.3314H171.709L170.163 22.7188H168.693L167.417 32.3314H160.763L164.786 2.53125H172.716ZM172.135 8.84471H170.588L169.582 16.4445H171.709C173.488 16.4445 174.146 16.0425 174.61 12.826C174.689 12.1824 174.765 11.6202 174.765 11.1359C174.765 9.24635 174.069 8.84471 172.135 8.84471Z" fill="white"/>
<path fill-rule="evenodd" clip-rule="evenodd" d="M188.072 9.12708H182.423L183.312 2.53125H201.571L200.681 9.12708H194.995L191.862 32.3314H184.938L188.072 9.12708Z" fill="white"/>
<path fill-rule="evenodd" clip-rule="evenodd" d="M197.663 30.5198L201.146 24.6073C202.189 25.2109 204.084 26.0558 206.174 26.0558C207.992 26.0558 208.571 25.2109 208.571 23.6438C208.571 22.5569 207.992 21.7527 205.167 19.0179C202.886 16.8072 201.183 14.5552 201.183 11.0957C201.183 6.27081 203.739 2.16931 210.389 2.16931C213.485 2.16931 214.955 2.45042 217.237 3.33602L214.452 9.89022C213.523 9.4482 211.975 8.96549 210.236 8.96549C208.997 8.96549 208.185 9.68893 208.185 10.9755C208.185 12.1028 208.997 13.026 211.202 15.1979C213.794 17.7313 215.496 20.0635 215.496 23.5624C215.496 28.3485 213.292 32.5301 206.097 32.5301C201.763 32.5301 199.173 31.3653 197.663 30.5198Z" fill="white"/>
</svg>
