<svg width="20" height="18" viewBox="0 0 20 18" fill="none" xmlns="http://www.w3.org/2000/svg">
<rect width="20" height="18" fill="#1E1E1E"/>
<rect width="1440" height="2954" transform="translate(-930 -96)" fill="white"/>
<rect x="-930" y="-96" width="1440" height="147" fill="#1C2D3A"/>
<rect x="-19" y="-7" width="140" height="37" rx="18.5" fill="#EE4700"/>
<path d="M1.5 17V6C1.5 2 2.5 1 6.5 1H13.5C17.5 1 18.5 2 18.5 6V16C18.5 16.14 18.5 16.28 18.49 16.42" stroke="white" stroke-width="1.5" stroke-linecap="round" stroke-linejoin="round"/>
<path d="M6 6H14M6 9.5H11M4.35 14H18.5V17.5C18.5 19.43 16.93 21 15 21H5C3.07 21 1.5 19.43 1.5 17.5V16.85C1.5 15.28 2.78 14 4.35 14Z" stroke="white" stroke-width="1.5" stroke-linecap="round" stroke-linejoin="round"/>
</svg>
