<svg width="30" height="31" viewBox="0 0 30 31" fill="none" xmlns="http://www.w3.org/2000/svg">
<path d="M29 24.6785C29 25.2005 28.8878 25.737 28.6495 26.259C28.4111 26.781 28.1027 27.274 27.696 27.738C27.009 28.521 26.2519 29.0865 25.3966 29.449C24.5553 29.8115 23.644 30 22.6625 30C21.2324 30 19.7041 29.652 18.0916 28.9415C16.4792 28.231 14.8668 27.274 13.2684 26.0705C11.6393 24.8381 10.102 23.481 8.6695 22.0105C7.25165 20.5344 5.94396 18.9494 4.75764 17.269C3.60791 15.616 2.68252 13.963 2.00951 12.3245C1.3365 10.6715 1 9.091 1 7.583C1 6.597 1.16825 5.6545 1.50476 4.7845C1.84126 3.9 2.37406 3.088 3.11718 2.363C4.01452 1.4495 4.99599 1 6.03355 1C6.42614 1 6.81873 1.087 7.16925 1.261C7.5338 1.435 7.85628 1.696 8.10866 2.073L11.3615 6.8145C11.6139 7.177 11.7962 7.5105 11.9224 7.8295C12.0486 8.134 12.1187 8.4385 12.1187 8.714C12.1187 9.062 12.0205 9.41 11.8242 9.7435C11.642 10.077 11.3756 10.425 11.0391 10.773L9.97346 11.9185C9.81923 12.078 9.74912 12.2665 9.74912 12.4985C9.74912 12.6145 9.76315 12.716 9.79119 12.832C9.83325 12.948 9.87531 13.035 9.90336 13.122C10.1557 13.6005 10.5904 14.224 11.2073 14.978C11.8383 15.732 12.5113 16.5005 13.2404 17.269C13.9975 18.0375 14.7266 18.748 15.4697 19.4005C16.1988 20.0385 16.8017 20.4735 17.2784 20.7345C17.3485 20.7635 17.4326 20.807 17.5308 20.8505C17.643 20.894 17.7551 20.9085 17.8813 20.9085C18.1197 20.9085 18.302 20.8215 18.4562 20.662L19.5218 19.5745C19.8723 19.212 20.2088 18.9365 20.5313 18.7625C20.8538 18.5595 21.1763 18.458 21.5268 18.458C21.7932 18.458 22.0736 18.516 22.3821 18.6465C22.6905 18.777 23.013 18.9655 23.3635 19.212L28.0045 22.6195C28.3691 22.8805 28.6214 23.185 28.7757 23.5475C28.9159 23.91 29 24.2725 29 24.6785Z" stroke="#1BC05D" stroke-width="1.5" stroke-miterlimit="10"/>
</svg>
