<svg width="30" height="31" viewBox="0 0 30 31" fill="none" xmlns="http://www.w3.org/2000/svg">
<path d="M23.582 13.762V19.4321C23.582 19.8007 23.5679 20.1551 23.5253 20.4953C23.1993 24.3227 20.9454 26.2222 16.792 26.2222H16.225C15.8706 26.2222 15.5304 26.3923 15.3178 26.6758L13.6167 28.9439C12.8654 29.9503 11.6463 29.9503 10.895 28.9439L9.19397 26.6758C9.0805 26.5437 8.94182 26.4355 8.78605 26.3576C8.63027 26.2797 8.46052 26.2337 8.28674 26.2222H7.71972C3.19776 26.2222 0.929688 25.1023 0.929688 19.4321V13.762C0.929688 9.60856 2.84337 7.35466 6.65656 7.02863C6.99678 6.9861 7.35116 6.97192 7.71972 6.97192H16.792C21.314 6.97192 23.582 9.23999 23.582 13.762Z" stroke="white" stroke-width="1.5" stroke-miterlimit="10" stroke-linecap="round" stroke-linejoin="round"/>
<path d="M29.2506 8.09179V13.762C29.2506 17.9295 27.3369 20.1693 23.5237 20.4953C23.5662 20.1551 23.5804 19.8007 23.5804 19.4321V13.762C23.5804 9.24 21.3123 6.97193 16.7903 6.97193H7.71807C7.3495 6.97193 6.99512 6.98611 6.65491 7.02864C6.98094 3.21544 9.23484 1.30176 13.3882 1.30176H22.4605C26.9825 1.30176 29.2506 3.56983 29.2506 8.09179Z" stroke="white" stroke-width="1.5" stroke-miterlimit="10" stroke-linecap="round" stroke-linejoin="round"/>
<path d="M17.2218 17.2491H17.2359M12.2604 17.2491H12.2745M7.29895 17.2491H7.31313" stroke="white" stroke-width="2" stroke-linecap="round" stroke-linejoin="round"/>
</svg>
