<svg width="25" height="25" viewBox="0 0 25 25" fill="none" xmlns="http://www.w3.org/2000/svg">
<rect width="25" height="25" fill="#1E1E1E"/>
<rect width="1440" height="2954" transform="translate(-1234 -98)" fill="white"/>
<rect x="-1234" y="-98" width="1440" height="147" fill="#1C2D3A"/>
<path d="M23.582 7.76196V13.4321C23.582 13.8007 23.5679 14.1551 23.5253 14.4953C23.1993 18.3227 20.9454 20.2222 16.792 20.2222H16.225C15.8706 20.2222 15.5304 20.3923 15.3178 20.6758L13.6167 22.9439C12.8654 23.9503 11.6463 23.9503 10.895 22.9439L9.19397 20.6758C9.0805 20.5437 8.94182 20.4355 8.78605 20.3576C8.63027 20.2797 8.46052 20.2337 8.28674 20.2222H7.71972C3.19776 20.2222 0.929688 19.1023 0.929688 13.4321V7.76196C0.929688 3.60856 2.84337 1.35466 6.65656 1.02863C6.99678 0.986099 7.35116 0.971924 7.71972 0.971924H16.792C21.314 0.971924 23.582 3.23999 23.582 7.76196Z" stroke="white" stroke-width="1.5" stroke-miterlimit="10" stroke-linecap="round" stroke-linejoin="round"/>
<path d="M29.2506 2.09179V7.76197C29.2506 11.9295 27.3369 14.1693 23.5237 14.4953C23.5662 14.1551 23.5804 13.8007 23.5804 13.4321V7.76197C23.5804 3.24 21.3123 0.971933 16.7903 0.971933H7.71807C7.3495 0.971933 6.99512 0.986109 6.65491 1.02864C6.98094 -2.78456 9.23484 -4.69824 13.3882 -4.69824H22.4605C26.9825 -4.69824 29.2506 -2.43017 29.2506 2.09179Z" stroke="white" stroke-width="1.5" stroke-miterlimit="10" stroke-linecap="round" stroke-linejoin="round"/>
<path d="M17.2218 11.2491H17.2359M12.2604 11.2491H12.2745M7.29895 11.2491H7.31313" stroke="white" stroke-width="2" stroke-linecap="round" stroke-linejoin="round"/>
</svg>
