<svg width="22" height="22" viewBox="0 0 22 22" fill="none" xmlns="http://www.w3.org/2000/svg">
<path d="M16 17.43H12L7.55 20.39C7.39982 20.4901 7.22528 20.5476 7.045 20.5563C6.86472 20.5649 6.68546 20.5245 6.52635 20.4393C6.36724 20.3541 6.23424 20.2273 6.14154 20.0725C6.04884 19.9176 5.99992 19.7405 6 19.56V17.43C3 17.43 1 15.43 1 12.43V6.42999C1 3.42999 3 1.42999 6 1.42999H16C19 1.42999 21 3.42999 21 6.42999V12.43C21 15.43 19 17.43 16 17.43Z" stroke="black" stroke-width="1.5" stroke-miterlimit="10" stroke-linecap="round" stroke-linejoin="round"/>
<path d="M11 10.36V10.15C11 9.46998 11.42 9.10998 11.84 8.81998C12.25 8.53998 12.66 8.17999 12.66 7.51999C12.66 6.59999 11.92 5.85999 11 5.85999C10.08 5.85999 9.34003 6.59999 9.34003 7.51999M10.995 12.75H11.005" stroke="black" stroke-width="1.5" stroke-linecap="round" stroke-linejoin="round"/>
</svg>
