<svg width="12" height="14" viewBox="0 0 12 14" fill="none" xmlns="http://www.w3.org/2000/svg">
<rect width="12" height="14" fill="#1E1E1E"/>
<rect width="1440" height="2954" transform="translate(-1091 -206)" fill="white"/>
<rect x="-52" y="-11" width="271" height="45" rx="22.5" fill="#33BB5A"/>
<path d="M8 1.64038C10 1.64038 11 2.55229 11 4.37612V10.7415C11 12.5382 9.59 13.2334 7.86 12.2944L6.54 11.5721C6.24 11.4096 5.76 11.4096 5.46 11.5721L4.14 12.2944C2.41 13.2334 1 12.5382 1 10.7415V4.37612C1 2.55229 2 1.64038 4 1.64038H8Z" stroke="white" stroke-width="1.5" stroke-linecap="round" stroke-linejoin="round"/>
<path d="M0.82 4.33995C-2.59 4.8546 -4 6.75066 -4 10.5789V13.3146C-4 17.8742 -2 19.698 3 19.698H9C14 19.698 16 17.8742 16 13.3146V10.5789C16 6.68745 14.54 4.78237 11 4.31287" stroke="white" stroke-width="1.5" stroke-linecap="round" stroke-linejoin="round"/>
</svg>
