<svg width="22" height="21" viewBox="0 0 22 21" fill="none" xmlns="http://www.w3.org/2000/svg">
<path d="M13 1.64038C15 1.64038 16 2.55229 16 4.37612V10.7415C16 12.5382 14.59 13.2334 12.86 12.2944L11.54 11.5721C11.24 11.4096 10.76 11.4096 10.46 11.5721L9.14 12.2944C7.41 13.2334 6 12.5382 6 10.7415V4.37612C6 2.55229 7 1.64038 9 1.64038H13Z" stroke="white" stroke-width="1.5" stroke-linecap="round" stroke-linejoin="round"/>
<path d="M5.82 4.33995C2.41 4.8546 1 6.75066 1 10.5789V13.3146C1 17.8742 3 19.698 8 19.698H14C19 19.698 21 17.8742 21 13.3146V10.5789C21 6.68745 19.54 4.78237 16 4.31287" stroke="white" stroke-width="1.5" stroke-linecap="round" stroke-linejoin="round"/>
</svg>
