<?xml version="1.0" encoding="UTF-8"?>
<svg width="170px" height="28px" viewBox="0 0 170 28" version="1.1" xmlns="http://www.w3.org/2000/svg" xmlns:xlink="http://www.w3.org/1999/xlink">
    <!-- Generator: Sketch 61 (89581) - https://sketch.com -->
    <title>Media/Logo/Megaparts/Megaparts Logo Dark Small</title>
    <desc>Created with Sketch.</desc>
    <g id="Media/Logo/Megaparts/Megaparts-Logo-Dark-Small" stroke="none" stroke-width="1" fill="none" fill-rule="evenodd">
        <g id="Logo">
            <path d="M17.1892354,0.554010435 C16.2509896,0.350949565 15.2784535,0.243575652 14.2798955,0.243575652 C13.1689814,0.243575652 12.0884667,0.377001739 11.0546455,0.625836522 L11.0546455,2.49574957 C10.0594922,2.77477565 9.11711214,3.17943652 8.24647461,3.69293217 L6.93249287,2.37766261 C5.18684029,3.48816696 3.70870204,4.98312348 2.61748678,6.74322783 L3.93463005,8.06214957 C3.43924216,8.92844522 3.04867124,9.86194087 2.78261608,10.8470539 L0.919257199,10.8470539 C0.684817371,11.8528626 0.560058417,12.9020104 0.560058417,13.9794017 C0.560058417,15.0134539 0.675089577,16.019993 0.890803403,16.988793 L2.74662324,16.988793 C3.00684173,17.9897322 3.39522389,18.938567 3.89036859,19.8187409 L2.57079337,21.1403409 C3.65033528,22.90848 5.11874574,24.4119583 6.85783206,25.5334191 L8.16913865,24.2208278 C9.06215011,24.7557496 10.0300656,25.1752626 11.0546455,25.4635409 L11.0546455,27.3327235 C12.0884667,27.5825322 13.1689814,27.7157148 14.2798955,27.7157148 C15.2784535,27.7157148 16.2509896,27.6076104 17.1892354,27.4045496 L17.1892354,25.5499757 C17.696783,25.4221496 18.1897389,25.260967 18.6693192,25.07008 L16.5352844,22.9340452 C15.8129957,23.115193 15.0576326,23.2130713 14.2798955,23.2130713 C9.18666587,23.2130713 5.05697425,19.0792974 5.05697425,13.9794017 C5.05697425,8.87974957 9.18666587,4.74597565 14.2798955,4.74597565 C19.374341,4.74597565 23.503303,8.87974957 23.503303,13.9794017 C23.503303,14.8084452 23.3916766,15.611193 23.1881225,16.3752278 L25.3087816,18.4990887 C25.5086877,18.0111583 25.6786809,17.5071583 25.8129245,16.988793 L27.6685011,16.988793 C27.8849445,16.019993 27.9999757,15.0134539 27.9999757,13.9794017 C27.9999757,12.9020104 27.8754599,11.8528626 27.6412633,10.8470539 L25.7783908,10.8470539 C25.4902049,9.78573217 25.060966,8.7830887 24.5086705,7.86103652 L25.8209499,6.54844522 C24.7007944,4.80830609 23.1993095,3.33794087 21.4327422,2.25592348 L20.1136533,3.57752348 C19.2050774,3.06621913 18.2242726,2.66886261 17.1892354,2.40931478 L17.1892354,0.554010435 Z" id="Fill-1" fill="#1C2D3A" transform="translate(14.280017, 13.979645) scale(-1, 1) translate(-14.280017, -13.979645) "></path>
            <path d="M14.5685434,8.1872 C15.1244868,8.1872 15.6804302,8.26973913 16.2164317,8.43481739 L16.2164317,8.43481739 L12.6905928,11.9640348 L13.4719779,14.8830957 L16.3883704,15.6653913 L19.9134797,12.1364174 L19.9862934,12.3955506 C20.0749361,12.742871 20.1298102,13.0970089 20.1509156,13.4529219 L20.1509156,13.4529219 L20.1608088,13.7869565 L20.1544189,14.0553542 C20.0947789,15.3071036 19.617629,16.5426234 18.7221549,17.5346995 L18.7221549,17.5346995 L18.5238643,17.7434783 L18.3304221,17.9281756 C16.8877277,19.2421423 14.9251041,19.6655485 13.1470693,19.1987693 L13.1470693,19.1987693 L12.9058203,19.1296 L5.80234212,26.2333217 L5.46323453,26.0140989 C4.23475322,25.189303 3.17215636,24.1355921 2.33614547,22.9140333 L2.33614547,22.9140333 L2.11380595,22.5767652 L9.2311462,15.4504 L9.16211324,15.2088407 C8.69625206,13.4285288 9.11879078,11.463609 10.4316026,10.0192329 L10.4316026,10.0192329 L10.6161408,9.82556522 L10.8246393,9.6271721 C11.8154242,8.73121526 13.0498816,8.25353433 14.30041,8.19363999 L14.30041,8.19363999 Z M73.9426622,1.93078261 L74.3042603,1.93303411 C77.0233578,1.96736733 78.5306748,2.38998261 79.5687317,2.89958261 L79.5687317,2.89958261 L77.3118836,7.77937391 L77.0951389,7.68888102 C76.2775219,7.36932947 75.2088765,7.18601739 73.9129925,7.18601739 L73.9129925,7.18601739 L73.7958629,7.18662613 C71.7535244,7.2086754 71.1297491,7.85800837 70.3628342,13.6902957 L70.3628342,13.6902957 L70.3078107,14.0817991 C70.0399075,16.0031974 69.8813084,17.3861587 69.8813084,18.3811478 L69.8813084,18.3811478 L69.8835065,18.5793572 C69.918939,20.1279863 70.3889922,20.7906087 71.7463696,20.7906087 L71.7463696,20.7906087 L71.892196,20.7872383 C73.2198692,20.7241087 73.6227688,19.7681175 73.9129925,17.4125913 L73.9129925,17.4125913 L74.0929567,15.9738783 L71.6563875,15.9738783 L72.3181207,11.1888 L79.5687317,11.1888 L78.8165301,16.5684522 L78.7682078,16.9115253 C77.8132371,23.5786897 76.5648742,25.5447652 71.4761802,25.5447652 L71.4761802,25.5447652 L71.1803748,25.5420647 C66.1216645,25.4485289 64.61614,22.9295928 64.61614,18.664313 L64.61614,18.664313 L64.6205517,18.2391559 C64.6497351,16.7987927 64.8214186,15.1266403 65.0672665,13.2208696 C66.0001619,6.12201739 67.3542708,1.93078261 73.9426622,1.93078261 L73.9426622,1.93078261 Z M39.8871157,2.212 L40.3990408,10.4376696 L40.579005,14.3783652 L41.813462,10.4376696 L44.6102027,2.212 L51.1993238,2.212 L48.0706221,25.3901565 L43.0163037,25.3901565 L44.7612267,12.5639652 L43.7378628,15.9429565 L40.579005,25.3901565 L37.2404262,25.3901565 L36.638519,15.9738783 L36.5475641,12.5639652 L34.8026411,25.3901565 L30.1690498,25.3901565 L33.2987242,2.212 L39.8871157,2.212 Z M65.5492787,2.212 L64.8573893,7.34233043 L58.2383553,7.34233043 L57.7266734,11.1888 L64.0446322,11.1888 L63.3539588,16.2865043 L57.0352704,16.2865043 L56.4637625,20.3837565 L63.0827966,20.3837565 L62.4203338,25.3901565 L50.4763055,25.3901565 L53.6052504,2.212 L65.5492787,2.212 Z M91.7527933,2.14942609 L93.9495723,25.3901565 L88.3830856,25.3901565 L88.1732085,22.6364174 L83.8710917,22.6364174 L82.9683524,25.3901565 L77.6428718,25.3901565 L85.9166035,2.14942609 L91.7527933,2.14942609 Z M87.4514062,11.2822957 L86.5493965,14.3165217 L85.4056511,17.8510957 L87.8115777,17.8510957 L87.6014574,14.3474435 L87.4514062,11.2822957 Z" id="Combined-Shape" fill="#008AEE"></path>
            <path d="M104.448269,2.21214609 C109.924531,2.21214609 111.579472,4.11955478 111.579472,7.93583304 C111.579472,8.77997217 111.518673,9.68765913 111.368622,10.6883548 C110.586264,16.3178157 108.931323,18.5081461 103.877491,18.5081461 L101.380366,18.5081461 L100.446985,25.3898157 L95.1827891,25.3898157 L98.3110043,2.21214609 L104.448269,2.21214609 Z M104.147681,7.12261565 L102.914683,7.12261565 L102.0421,13.6278678 L103.997143,13.6278678 C105.261999,13.6278678 105.832048,13.2210157 106.193922,10.5008765 C106.284634,9.87513739 106.31406,9.37527652 106.31406,8.96818087 C106.31406,7.46762435 105.712396,7.12261565 104.147681,7.12261565 Z" id="Combined-Shape" fill="#1C2D3A"></path>
            <path d="M122.168832,2.14952348 L124.364152,25.3902539 L118.799367,25.3902539 L118.587788,22.6362713 L114.286401,22.6362713 L113.383905,25.3902539 L108.058424,25.3902539 L116.332156,2.14952348 L122.168832,2.14952348 Z M117.865985,11.2821496 L116.963976,14.3163757 L115.820717,17.8509496 L118.227373,17.8509496 L118.017009,14.3472974 L117.865985,11.2821496 Z" id="Combined-Shape" fill="#1C2D3A"></path>
            <path d="M134.894342,2.21229217 C140.250222,2.21229217 141.813479,4.02596174 141.813479,7.59218783 C141.813479,8.37375304 141.72374,9.18770087 141.603602,10.1248487 C141.212058,13.1279096 140.308589,15.5678052 137.933792,16.9127791 L139.40658,25.3902052 L134.111498,25.3902052 L132.9089,17.9137183 L131.765641,17.9137183 L130.773163,25.3902052 L125.59822,25.3902052 L128.726921,2.21229217 L134.894342,2.21229217 Z M134.442486,7.12276174 L133.239888,7.12276174 L132.45753,13.0336835 L134.111498,13.0336835 C135.49552,13.0336835 136.007202,12.7210574 136.368103,10.2193183 C136.428902,9.71872696 136.488728,9.28144 136.488728,8.90477913 C136.488728,7.43514435 135.94689,7.12276174 134.442486,7.12276174 Z" id="Combined-Shape" fill="#1C2D3A"></path>
            <polygon id="Fill-25" fill="#1C2D3A" points="146.837909 7.34237913 142.444351 7.34237913 143.13624 2.21229217 157.337603 2.21229217 156.644984 7.34237913 152.222972 7.34237913 149.78616 25.3902052 144.401096 25.3902052"></polygon>
            <path d="M154.298105,23.9811722 L157.006566,19.3825983 C157.81835,19.8520243 159.292111,20.5091722 160.917625,20.5091722 C162.33156,20.5091722 162.781957,19.8520243 162.781957,18.6331722 C162.781957,17.7878157 162.33156,17.16232 160.134781,15.0352939 C158.360188,13.3158504 157.035506,11.5642678 157.035506,8.87358957 C157.035506,5.12085913 159.023381,1.93080696 164.195892,1.93080696 C166.603764,1.93080696 167.747509,2.14945043 169.522102,2.83825043 L167.355966,7.93595478 C166.633677,7.59216348 165.429376,7.21672 164.076726,7.21672 C163.113432,7.21672 162.482098,7.77939826 162.482098,8.78009391 C162.482098,9.65685913 163.113432,10.3748765 164.828198,12.0641287 C166.844527,14.0345983 168.16775,15.8485113 168.16775,18.5698678 C168.16775,22.292407 166.45347,25.5447896 160.857799,25.5447896 C157.487119,25.5447896 155.47225,24.638807 154.298105,23.9811722" id="Fill-27" fill="#1C2D3A"></path>
        </g>
    </g>
</svg>